<svg width="11" height="12" xmlns="http://www.w3.org/2000/svg" xmlns:xlink="http://www.w3.org/1999/xlink" xmlns:svgjs="http://svgjs.com/svgjs" viewBox="0 0.482 11 11.036" fill="#cacaca"><svg xmlns="http://www.w3.org/2000/svg" width="11" height="12" viewBox="2 1.938 10.03 10.063"><path paint-order="stroke fill markers" fill-rule="evenodd" d="M11 7a1 1 0 0 1-1-1V5c0-.405.243-.75.59-.907l-.717.063c-.08-.35-.262-.695-.669-.672-.81.045-3.96-.135-4.5.045-.408.136-.55.474-.634 1.136l-.135.012A.982.982 0 0 1 4 5v1a1 1 0 1 1-2 0V5c0-.055.023-.103.032-.156v-.003c.017-.103.041-.2.087-.29.424-1.33 2.394-2.289 2.957-2.43.604-.15 1.395-.169 2.299-.183.571-.01.46.137 1.517.099C9.949 2 12 3.969 12 3.969l-.805.07A.986.986 0 0 1 12 5v1a1 1 0 0 1-1 1zm-8.296 3.06c.802-.963 2.146-2.502 3.108-3.21 1.33-.977 2.186-.094 5.342 3.182.436.07.768.41.822.851l.054.056h-.042c0 .021.012.04.012.061a1 1 0 0 1-1 1H3a1 1 0 0 1-1-1c0-.447.299-.812.704-.94zm4.171.527a1.306 1.306 0 1 0 0-2.611 1.306 1.306 0 0 0 0 2.611z"/></svg></svg>